<?xml version="1.0" standalone="no"?>
<!DOCTYPE svg PUBLIC "-//W3C//DTD SVG 20010904//EN"
 "http://www.w3.org/TR/2001/REC-SVG-20010904/DTD/svg10.dtd">
<svg version="1.0" xmlns="http://www.w3.org/2000/svg"
 width="500.000000pt" height="500.000000pt" viewBox="0 0 500.000000 500.000000"
 preserveAspectRatio="xMidYMid meet">

<g transform="translate(0.000000,500.000000) scale(0.100000,-0.100000)"
fill="#000000" stroke="none">
<path d="M1415 3050 c-290 -282 -390 -385 -390 -402 0 -22 3 -23 93 -26 l92
-3 291 283 c215 209 297 283 315 283 17 0 99 -73 314 -283 l291 -283 92 3
c126 4 127 14 2 138 -52 52 -95 100 -95 106 0 21 323 324 345 323 12 0 130
-108 310 -284 l290 -285 95 3 c88 2 95 4 98 23 2 16 -19 42 -82 100 -46 44
-224 215 -394 382 -171 166 -315 302 -320 302 -5 0 -111 -99 -235 -220 -124
-121 -231 -220 -237 -220 -6 0 -112 98 -236 218 -124 119 -230 218 -237 219
-7 2 -187 -168 -402 -377z"/>
<path d="M1710 2945 l0 -45 40 0 40 0 0 45 0 45 -40 0 -40 0 0 -45z"/>
<path d="M1847 2984 c-4 -4 -7 -25 -7 -46 l0 -39 43 3 c42 3 42 3 42 43 0 39
-1 40 -35 43 -20 2 -39 0 -43 -4z"/>
<path d="M2667 2984 c-4 -4 -7 -25 -7 -46 l0 -38 46 0 45 0 -3 43 c-3 40 -4
42 -38 45 -20 2 -39 0 -43 -4z"/>
<path d="M2797 2984 c-4 -4 -7 -25 -7 -46 l0 -38 46 0 45 0 -3 43 c-3 40 -4
42 -38 45 -20 2 -39 0 -43 -4z"/>
<path d="M1710 2815 l0 -45 40 0 40 0 0 45 0 45 -40 0 -40 0 0 -45z"/>
<path d="M1840 2815 l0 -46 43 3 c42 3 42 3 42 43 0 40 0 40 -42 43 l-43 3 0
-46z"/>
<path d="M2660 2815 l0 -45 45 0 45 0 0 45 0 45 -45 0 -45 0 0 -45z"/>
<path d="M2790 2815 l0 -45 45 0 45 0 0 45 0 45 -45 0 -45 0 0 -45z"/>
<path d="M1437 2399 c-57 -13 -91 -34 -131 -81 -83 -96 -75 -240 19 -331 144
-140 380 -45 393 158 5 78 -10 126 -57 178 -57 63 -147 94 -224 76z m66 -111
c88 -96 147 -251 118 -307 -50 -92 -261 139 -278 304 -5 46 -3 54 17 68 20 14
27 14 59 2 20 -8 58 -39 84 -67z"/>
<path d="M3257 2396 c-52 -19 -85 -52 -97 -95 -5 -20 -10 -105 -10 -188 0
-116 -3 -153 -12 -153 -35 1 -56 39 -93 175 -45 159 -76 207 -160 246 -48 22
-119 27 -92 7 9 -7 23 -30 32 -50 l15 -37 -44 -63 c-72 -104 -126 -230 -126
-295 0 -23 2 -23 102 -23 95 0 100 1 86 18 -21 23 -47 76 -51 101 -2 11 -6 24
-10 27 -4 4 -7 36 -7 72 0 48 6 74 22 103 12 22 25 39 28 39 5 0 54 -154 65
-205 11 -50 61 -117 106 -140 34 -18 82 -19 112 -4 16 9 22 9 25 0 2 -7 31
-11 78 -11 l74 0 0 149 c0 82 -3 157 -6 166 -4 8 -26 29 -51 46 -36 25 -44 36
-41 57 2 23 9 28 37 30 46 5 85 -13 126 -59 57 -63 41 -137 -30 -140 -15 0
-12 -4 13 -15 l32 -14 0 -79 c0 -71 2 -81 26 -104 34 -35 81 -43 129 -23 46
19 45 19 45 1 0 -12 15 -15 75 -15 l75 0 0 240 0 240 -75 0 -75 0 0 -210 c0
-123 -4 -210 -9 -210 -18 0 -41 31 -53 73 -7 23 -29 58 -50 79 l-37 37 46 22
c103 50 84 164 -34 198 -63 18 -147 21 -186 7z"/>
<path d="M3893 2399 c-129 -27 -167 -183 -61 -247 18 -11 58 -27 88 -37 73
-23 141 -58 163 -83 25 -28 18 -56 -14 -60 -21 -2 -34 6 -65 43 -44 54 -80 75
-126 75 -64 0 -108 -57 -108 -137 0 -37 1 -37 13 -13 17 35 55 36 116 6 61
-31 101 -33 156 -6 48 23 85 80 85 130 0 47 -67 110 -145 139 -33 12 -79 28
-102 37 -42 15 -93 55 -93 73 0 13 29 41 42 41 6 0 33 -24 60 -54 61 -67 94
-82 141 -67 19 7 42 20 50 29 22 24 41 112 27 126 -7 7 -10 3 -10 -12 0 -33
-42 -39 -87 -12 -48 29 -89 38 -130 29z"/>
<path d="M810 2160 l0 -240 75 0 75 0 0 131 0 131 24 -6 c13 -3 32 -8 43 -12
10 -3 7 1 -7 10 -14 8 -33 15 -42 16 -16 0 -18 12 -18 105 l0 105 -75 0 -75 0
0 -240z"/>
<path d="M1058 2273 c-2 -71 -2 -179 0 -240 l3 -113 74 0 75 0 0 240 0 240
-74 0 -75 0 -3 -127z"/>
<path d="M1760 2160 l0 -240 76 0 77 0 -5 45 c-4 32 -17 60 -47 100 -23 31
-49 75 -57 98 -16 45 -34 177 -24 177 3 0 16 -33 28 -74 22 -77 49 -109 121
-148 19 -10 38 -33 48 -55 l16 -38 9 33 c6 24 23 42 61 66 73 47 93 72 112
144 21 74 38 92 29 30 -14 -105 -27 -149 -57 -193 -52 -77 -77 -128 -77 -157
l0 -28 75 0 75 0 0 241 0 241 -60 -4 c-81 -6 -109 -34 -143 -142 -13 -43 -27
-75 -29 -70 -3 5 -13 36 -23 69 -9 33 -24 73 -32 88 -18 35 -67 57 -128 57
l-45 0 0 -240z"/>
<path d="M2261 2158 c0 -206 2 -238 13 -209 19 54 54 58 118 13 89 -61 186
-53 223 18 8 16 15 53 15 82 l-1 53 -14 -32 c-19 -45 -43 -48 -116 -13 -49 24
-72 29 -99 24 -46 -8 -85 -29 -104 -56 -11 -15 -16 -18 -16 -7 0 24 27 56 67
80 61 36 63 41 63 171 l0 118 -75 0 -75 0 1 -242z"/>
</g>
</svg>
